<svg t="1739500244584" class="icon" viewBox="0 0 1024 1024" version="1.1" xmlns="http://www.w3.org/2000/svg" p-id="4204" xmlns:xlink="http://www.w3.org/1999/xlink" width="64" height="64"><path d="M630.153846 945.230769h78.769231v78.769231H630.153846zM787.692308 945.230769h78.76923v78.769231h-78.76923zM945.230769 236.307692h78.769231v78.769231h-78.769231zM236.307692 945.230769h157.538462v78.769231H236.307692zM472.615385 945.230769h78.76923v78.769231H472.615385zM945.230769 393.846154h78.769231v78.769231h-78.769231zM945.230769 551.384615h78.769231v78.769231h-78.769231zM945.230769 866.461538h78.769231v157.538462h-78.769231zM945.230769 708.923077h78.769231v78.769231h-78.769231zM787.692308 259.938462L764.061538 236.307692h23.63077V0H0v787.692308h236.307692v-23.63077l23.63077 23.63077H236.307692v78.76923h78.769231v-78.76923h55.138462L236.307692 653.784615V527.753846L496.246154 787.692308h110.276923L236.307692 417.476923V291.446154L732.553846 787.692308h55.138462v-55.138462L291.446154 236.307692h126.030769L787.692308 606.523077V496.246154L527.753846 236.307692h126.030769L787.692308 370.215385V315.076923h78.76923V236.307692h-78.76923z" p-id="4205" fill="#ffffff"></path></svg>