<svg t="1784780337634" class="icon" viewBox="0 0 1024 1024" version="1.1" xmlns="http://www.w3.org/2000/svg" p-id="23592" width="128" height="128"><path d="M934.381037 137.936593l-35.65037 37.015703h-232.865186L513.782519 21.845333l-152.082963 153.106963H143.663407l-35.65037-37.015703h-27.572148v111.085037h27.572148l36.219259-37.05363h9.784889v231.879111a23.134815 23.134815 0 0 0-18.394074 22.679704 23.134815 23.134815 0 0 0 18.394074 22.641778v0.948148a23.096889 23.096889 0 0 0-18.394074 22.679703v282.320593h9.178074v-185.15437h9.216v194.37037h9.178074v-194.37037h9.178074v185.15437h9.216V512.758519a23.134815 23.134815 0 0 0-18.394074-22.679704v-0.948148a23.134815 23.134815 0 1 0 0-45.359408V212.005926H227.555556V878.364444l275.456 120.338963 311.826963-120.338963V212.005926h64.398222v231.879111a23.096889 23.096889 0 0 0-18.432 22.679704c0 10.998519 7.698963 20.48 18.432 22.679703v0.910223a23.096889 23.096889 0 0 0-18.432 22.679703v282.320593h9.216v-185.15437h9.216v194.37037h9.140148v-194.37037h9.216v185.15437h9.216V512.758519a23.134815 23.134815 0 0 0-18.432-22.679704v-0.948148a23.096889 23.096889 0 0 0 18.432-22.641778 23.134815 23.134815 0 0 0-18.432-22.679704V211.968h9.746963l36.257185 37.05363h27.572148V137.936593h-27.572148z" fill="#F7B500" p-id="23593"></path><path d="M590.544593 450.332444l33.261037 98.531556c1.289481 3.792593-0.227556 7.964444-3.792593 10.353778a11.226074 11.226074 0 0 1-11.946667 0.113778l-94.321777-58.898963-94.321778 58.898963a11.226074 11.226074 0 0 1-11.984593-0.113778 8.912593 8.912593 0 0 1-3.716741-10.353778l33.14726-98.531556-91.401482-62.27437a8.912593 8.912593 0 0 1-3.640889-10.391704 10.277926 10.277926 0 0 1 9.633186-6.485333l114.801777-2.085926 37.736297-97.355852A10.24 10.24 0 0 1 513.744593 265.481481c4.399407 0 8.305778 2.503111 9.746963 6.257778l37.69837 97.355852 114.763852 2.085926c4.437333 0.075852 8.343704 2.692741 9.671111 6.447407a8.950519 8.950519 0 0 1-3.640889 10.42963l-91.401481 62.27437z" fill="#FA4100" p-id="23594"></path><path d="M493.037037 21.845333l143.663407 114.915556h325.252741v57.457778H42.477037V136.760889h306.858667L493.037037 21.845333z" fill="#B79C9A" p-id="23595"></path></svg>