<svg t="1784784661967" class="icon" viewBox="0 0 1024 1024" version="1.1" xmlns="http://www.w3.org/2000/svg" p-id="39368" width="128" height="128"><path d="M862.57 395.85H277.42v-29.26c0-17.55 11.71-29.26 29.26-29.26h526.63c17.55 0 29.26 11.71 29.26 29.26z m0 380.34c0 17.55-11.71 29.26-29.26 29.26H306.68c-17.55 0-29.26-11.71-29.26-29.26V454.36h585.15z m-643.66-409.6v321.83h-29.26c-17.55 0-29.25-11.7-29.25-29.26v-409.6c0-17.55 11.7-29.26 29.25-29.26h526.63c17.55 0 29.26 11.71 29.26 29.26v29.26H306.68c-46.81 0-87.77 41-87.77 87.77z m614.4-87.77h-29.26v-29.26c0-46.81-41-87.77-87.77-87.77H189.65c-46.81 0-87.77 41-87.77 87.77v409.6c0 46.81 41 87.77 87.77 87.77h29.26v29.26c0 46.81 41 87.77 87.77 87.77h526.63c46.81 0 87.77-41 87.77-87.77v-409.6c0-46.81-41-87.77-87.77-87.77z m0 0" fill="#1296db" p-id="39369"></path><path d="M447.33 555m32.5 0l320.33 0q32.5 0 32.5 32.5l0 0q0 32.5-32.5 32.5l-320.33 0q-32.5 0-32.5-32.5l0 0q0-32.5 32.5-32.5Z" fill="#1296db" p-id="39370"></path></svg>