<svg t="1784779088549" class="icon" viewBox="0 0 1024 1024" version="1.1" xmlns="http://www.w3.org/2000/svg" p-id="8476" width="128" height="128"><path d="M622.2 64H64v832h511.8v-64H128V128h416v227h224v36l-0.1 184.4h64L832 391v-86.8L622.2 64zM608 145l127.5 146H608V145z" fill="#727272" p-id="8477"></path><path d="M384 384.8h320v64H384zM384 639.9h319.9v64H384zM384 511.9h319.9v64H384z" fill="#B2B2B2" p-id="8478"></path><path d="M832 960h-64V832H640v-64h128V640h64v128h128v64H832z" fill="#669E8B" p-id="8479"></path><path d="M192 191.6h253v128H192zM192 389h128v379H192z" fill="#5280C1" p-id="8480"></path></svg>