<svg t="1784782645533" class="icon" viewBox="0 0 1536 1024" version="1.1" xmlns="http://www.w3.org/2000/svg" p-id="32255" width="128" height="128"><path d="M334.02368 975.87712l-28.95872-28.96384L1197.96736 54.25664l28.95872 28.96896z" fill="#ffffff" p-id="32256"></path><path d="M305.152 848.896h126.976v126.976H305.152zM305.152 601.6h126.976v126.976H305.152zM512.512 474.624h126.976v126.464h-126.976zM472.064 221.184H599.04V348.16H472.064zM806.4 180.736h126.464v126.976h-126.464zM595.456 765.44v133.12h133.12v-133.12h-133.12z m117.76 117.76h-102.4v-102.4h102.4v102.4zM889.344 385.024v133.12h133.12v-133.12h-133.12z m117.76 117.76h-102.4v-102.4h102.4v102.4zM1056.256 765.44v133.12h133.12v-133.12h-133.12z m117.76 117.76h-102.4v-102.4h102.4v102.4zM1096.704 177.664v133.12h133.12v-133.12h-133.12z m117.76 117.76h-102.4v-102.4h102.4v102.4z" fill="#ffffff" p-id="32257"></path></svg>