<svg t="1784782163282" class="icon" viewBox="0 0 1024 1024" version="1.1" xmlns="http://www.w3.org/2000/svg" p-id="25710" width="128" height="128"><path d="M954.37568 426.665833l0.01-255.9975H688.958272S777.437408 0 600.499136 0C423.530864 0.01 512 170.678333 512 170.678333H246.572592v255.9975S69.61432 341.346667 69.61432 512.005c0 170.668333 176.958272 85.329167 176.958272 85.329167v255.9975h265.417408S423.530864 1024 600.489136 1024c176.948272 0 88.459136-170.668333 88.459136-170.668333h265.427408v-255.9975S777.427408 682.673333 777.427408 512.005c0.01-170.668333 176.948272-85.339167 176.948272-85.339167zM541.409713 309.076982l16.529838 5.879942 10.899894-14.549858-0.729993 18.159823 16.519839 5.869943-16.819836 5.06995-0.729993 18.159823-9.859904-14.559858-16.839835 5.06995 10.899893-14.549857-9.869903-14.549858z m-6.439937 189.278151l13.969863 4.969952 9.099911-11.499888-0.829991 14.439859 13.979863 4.969951-14.469859 4.429957-0.199998 14.669857-8.019921-11.699886-14.229861 3.789963 9.109911-11.499888-8.409918-12.569877zM404.931046 209.867951l23.51977 8.359918 15.759846-20.179803-0.509995 25.59975 23.50977 8.359918-24.179763 7.609926-1.379987 26.029746-13.949864-21.169793-24.179764 7.609925 15.35985-21.059794-13.949863-21.159793z m-10.2499 201.358033l33.439673 12.619877 23.309772-29.289714-2.339977 36.749641 34.079668 12.849875-35.159657 10.339899-2.339977 36.749641-19.239812-30.419703-34.949659 9.679905 22.439781-28.859718-19.239812-30.419703z m-96.31906-176.488276l-8.819914-13.449869-15.32985 4.859953 10.429898-13.239871-9.049911-12.789875 14.609857 5.189949 9.809904-13.459869-0.269997 16.849836 14.609857 5.189949-15.099852 4.209959-0.889992 16.639838z m20.689798 122.008808l-0.259997 8.749915-4.729954-6.839934-7.979922 2.319978 5.339948-6.949932-4.729954-6.839933 7.629925 2.709973 5.089951-6.289939-0.01 8.099921 7.629925 2.709974-7.979922 2.329977z m82.819191 268.607377l-10.1699-14.709856 16.40984 5.839943 10.959893-13.539868-0.02 17.42983 16.409839 5.839943-17.179832 4.989951-0.549994 18.829816-10.169901-14.709856-17.179832 4.989951 11.489887-14.959854zM810.497085 788.992295l-158.518452 5.859943-47.969532 154.948487-50.369508-153.318503-157.938457 4.229959 127.698753-99.149032-50.949503-151.698519 129.148739 91.659105 127.698753-99.149032-47.999531 154.938487 129.198738 91.679105zM734.23783 413.005967l-1.439986 50.329508-28.349723-41.029599-47.259539 14.149862 30.659701-39.93961-27.479732-41.459595 46.379547 16.489839 30.029707-40.159608-1.439986 50.319508 46.379547 16.489839L734.23783 413.005967z" fill="#ECA13B" p-id="25711"></path><path d="M299.742073 208.707962l0.269997-16.859836-9.809904 13.459869-14.609857-5.189949 9.049911 12.789875-10.429898 13.24987 15.32985-4.869952 8.819914 13.449869 0.889992-16.629838 15.099852-4.209959zM319.421881 343.606644l-5.089951 6.299939-7.629925-2.709974 4.719954 6.829934-5.329948 6.949932 7.979922-2.319978 4.729954 6.839934 0.249997-8.749915 7.989922-2.319977-7.629925-2.709974zM427.690823 244.487612l13.949864 21.169794 1.379987-26.039746 24.189763-7.609926-23.50977-8.359918 0.509995-25.59975-15.759846 20.179803-23.51977-8.359918 13.949863 21.169793-15.36985 21.059794zM426.440836 460.8255l19.239812 30.419703 2.329977-36.749641 35.169656-10.339899-34.079667-12.849875 2.339977-36.749641-23.309772 29.289714-33.449673-12.619877 19.259812 30.419703-22.439781 28.859718zM557.209559 333.116747l9.859903 14.549858 0.729993-18.149823 16.829836-5.07995-16.519839-5.869943 0.729993-18.159823-10.899894 14.549858-16.529838-5.879942 9.859904 14.559857-10.889894 14.539858zM548.499644 518.634935l8.019921 11.699886 0.199998-14.669857 14.469859-4.429957-13.979863-4.979951 0.829991-14.429859-9.099911 11.499888-13.969863-4.969952 8.409918 12.569877-9.109911 11.499888zM736.767805 331.386764l-30.029707 40.149608-46.379547-16.489839 27.479732 41.459595-30.659701 39.93961 47.269539-14.149862 28.349723 41.029599 1.439986-50.319508 47.479536-14.809856-46.379547-16.489839zM729.307878 542.384703l-127.698753 99.149032-129.148739-91.669105 50.939503 151.698519-127.698753 99.149032 157.938457-4.229959 50.369508 153.318503 47.969532-154.948487 158.518452-5.859943-129.188738-91.669105zM417.730921 650.023652l0.549994-18.829816 17.169833-4.989951-16.40984-5.829943 0.03-17.42983-10.959893 13.539868-16.40984-5.839943 10.1699 14.709856-11.489887 14.949854 17.179832-4.989951z" fill="#FFFFFF" p-id="25712"></path></svg>