<svg t="1740037761302" class="icon" viewBox="0 0 1359 1024" version="1.1" xmlns="http://www.w3.org/2000/svg" p-id="7563" xmlns:xlink="http://www.w3.org/1999/xlink" width="84.9375" height="64"><path d="M832.392701 212.126708H41.309811a41.309811 41.309811 0 1 0 0 82.619623h109.471001a39.244321 39.244321 0 0 0-3.511334 16.317376 41.309811 41.309811 0 0 0 41.309811 41.309811h97.904254v57.00754H57.214089a41.309811 41.309811 0 1 0 0 81.586878h130.539004a41.309811 41.309811 0 1 0 0 81.586877h97.904253v32.634751H97.904253a41.309811 41.309811 0 0 0 0 82.619623h187.753093V743.577433H171.435718a41.309811 41.309811 0 1 0 0 81.586878h114.221628v65.269502H57.214089a41.309811 41.309811 0 1 0 0 81.586877h1068.891372V212.126708z" fill="#E3EAFE" p-id="7564"></path><path d="M224.312276 330.479318A45.027695 45.027695 0 1 1 268.513775 285.658173 44.821145 44.821145 0 0 1 224.312276 330.479318z m0-76.010053a31.188908 31.188908 0 1 0 31.188908 31.188908 31.188908 31.188908 0 0 0-31.188908-31.188908z" fill="#7C56D2" p-id="7565"></path><path d="M305.899154 518.232411m-20.448357 0a20.448357 20.448357 0 1 0 40.896714 0 20.448357 20.448357 0 1 0-40.896714 0Z" fill="#B44DCD" p-id="7566"></path><path d="M322.21653 860.897298m-20.448357 0a20.448357 20.448357 0 1 0 40.896713 0 20.448357 20.448357 0 1 0-40.896713 0Z" fill="#F6FE02" p-id="7567"></path><path d="M89.84884 913.980405m-16.317376 0a16.317376 16.317376 0 1 0 32.634752 0 16.317376 16.317376 0 1 0-32.634752 0Z" fill="#7C56D2" p-id="7568"></path><path d="M309.823586 655.794083h-50.811068a3.924432 3.924432 0 0 1-3.924432-3.924432 3.924432 3.924432 0 0 1 3.924432-4.130981H309.823586a4.130981 4.130981 0 1 1 0 8.055413z" fill="#47BEFE" p-id="7569"></path><path d="M284.624601 681.612716a4.130981 4.130981 0 0 1-4.130981-4.130981v-51.224167a4.130981 4.130981 0 0 1 8.261962 0v51.017617a4.130981 4.130981 0 0 1-4.130981 4.337531z" fill="#47BEFE" p-id="7570"></path><path d="M395.747994 77.456723m204.070469 0l444.493571 0q204.070469 0 204.070469 204.070468l0 485.390285q0 204.070469-204.070469 204.070469l-444.493571 0q-204.070469 0-204.070469-204.070469l0-485.390285q0-204.070469 204.070469-204.070468Z" fill="#EDBB40" p-id="7571"></path><path d="M583.501087 350.927675m-24.579338 0a24.579338 24.579338 0 1 0 49.158676 0 24.579338 24.579338 0 1 0-49.158676 0Z" fill="#212121" p-id="7572"></path><path d="M1081.284316 371.78913H656.826003a20.654906 20.654906 0 1 1 0-41.309812h424.458313a20.654906 20.654906 0 0 1 0 41.309812z" fill="#212121" p-id="7573"></path><path d="M583.501087 526.287824m-24.579338 0a24.579338 24.579338 0 1 0 49.158676 0 24.579338 24.579338 0 1 0-49.158676 0Z" fill="#212121" p-id="7574"></path><path d="M1081.284316 546.736181H656.826003a20.654906 20.654906 0 0 1 0-41.309811h424.458313a20.654906 20.654906 0 0 1 0 41.309811z" fill="#212121" p-id="7575"></path><path d="M583.501087 701.854523m-24.579338 0a24.579338 24.579338 0 1 0 49.158676 0 24.579338 24.579338 0 1 0-49.158676 0Z" fill="#212121" p-id="7576"></path><path d="M1081.284316 722.922527H656.826003a20.654906 20.654906 0 1 1 0-41.309811h424.458313a20.654906 20.654906 0 0 1 0 41.309811z" fill="#212121" p-id="7577"></path><path d="M1097.601691 995.567283H598.992267a224.931924 224.931924 0 0 1-223.69263-224.518825V224.313103A224.725374 224.725374 0 0 1 598.992267 0.000826h497.783228A224.518825 224.518825 0 0 1 1321.913967 224.313103v546.735355A224.725374 224.725374 0 0 1 1097.601691 995.567283zM598.992267 41.310638a183.622112 183.622112 0 0 0-183.622113 183.415563v546.322257A183.828661 183.828661 0 0 0 598.992267 954.67057h497.783228a183.622112 183.622112 0 0 0 183.828661-183.622112V224.313103A183.622112 183.622112 0 0 0 1097.601691 41.310638z" fill="#212121" p-id="7578"></path><path d="M1158.740212 285.658173a16.523925 16.523925 0 0 1-16.317375-14.664983 155.944538 155.944538 0 0 0-36.972282-72.911818A93.153625 93.153625 0 0 0 1032.745287 159.0436a16.523925 16.523925 0 0 1-16.730474-14.458434 16.317376 16.317376 0 0 1 14.664984-17.556669 123.929434 123.929434 0 0 1 99.763194 50.604519 182.176269 182.176269 0 0 1 44.408048 90.881585 16.110826 16.110826 0 0 1-14.458434 17.763219z" fill="#FFFFFF" p-id="7579"></path></svg>