<svg t="1784779708198" class="icon" viewBox="0 0 1024 1024" version="1.1" xmlns="http://www.w3.org/2000/svg" p-id="9539" width="128" height="128"><path d="M819.9 346.6H656.7C653.9 266.5 611 226.4 528 226.4c-83 5.7-125.9 40.1-128.8 103 0 51.5 41.5 87.3 124.5 107.3 8.6 2.9 15.7 4.3 21.5 4.3 2.8 0 10 1.4 21.5 4.3 186 37.2 277.6 110.2 274.8 218.9-2.9 166-115.9 251.9-339.1 257.6-206.1 0-307.7-87.3-304.8-261.9h171.7c0 91.6 44.4 140.2 133.1 146 103-2.9 156-37.2 158.8-103 0-54.4-50.1-91.6-150.2-111.6-14.3-2.9-24.3-5.7-30.1-8.6C306.3 542.6 219 469.7 219 363.8c8.6-163.1 118.8-250.4 330.5-261.9 171.6 8.6 261.8 90.2 270.4 244.7z" p-id="9540" fill="#dd6572"></path></svg>